# xmcd
#
# Track frame offsets:
#	150
#	14587
#	28905
#	42671
#
# Disc length: 755 seconds
#
# Revision: 0
# Processed by: cddbd v1.5.2PL0 Copyright (c) Steve Scherf et al.
# Submitted via: audiograbber 1.83.01
#
DISCID=3302f104
DTITLE=Promo - Pulsschlag - Arden Promo 2008 (LC 13897)
DYEAR=2008
DGENRE=Deutsch
TTITLE0=Daniela Dilow - Deine Lippen (Fox Edit)
TTITLE1=Sandro Marin - Immer wieder Liebe (Fox Edit)
TTITLE2=Pascal Doerner - Zauberei (Fox Edit)
TTITLE3=Siggi Rose - Wo ist der Schlüssel zu dir (Fox Edit)
EXTD=
EXTT0=
EXTT1=
EXTT2=
EXTT3=
PLAYORDER=
